<mxfile host="app.diagrams.net" modified="2023-12-27T20:21:17.277Z" agent="Mozilla/5.0 (Windows NT 10.0; Win64; x64) AppleWebKit/537.36 (KHTML, like Gecko) Chrome/120.0.0.0 Safari/537.36" etag="ENRNCXwsbF6s9ZSYshCL" version="22.1.15" type="github">
  <diagram name="Страница — 1" id="rDC8wuNgqkLWT5qsxMoz">
    <mxGraphModel dx="1434" dy="746" grid="1" gridSize="10" guides="1" tooltips="1" connect="1" arrows="1" fold="1" page="1" pageScale="1" pageWidth="827" pageHeight="1169" math="0" shadow="0">
      <root>
        <mxCell id="0" />
        <mxCell id="1" parent="0" />
        <mxCell id="Ii56cu4GygpnmlbYdaqa-1" value="Директор" style="rounded=0;whiteSpace=wrap;html=1;" vertex="1" parent="1">
          <mxGeometry x="280" y="140" width="130" height="30" as="geometry" />
        </mxCell>
        <mxCell id="Ii56cu4GygpnmlbYdaqa-2" value="Технический директор" style="rounded=0;whiteSpace=wrap;html=1;" vertex="1" parent="1">
          <mxGeometry x="140" y="220" width="110" height="50" as="geometry" />
        </mxCell>
        <mxCell id="Ii56cu4GygpnmlbYdaqa-3" value="Коммерческий директор" style="rounded=0;whiteSpace=wrap;html=1;" vertex="1" parent="1">
          <mxGeometry x="290" y="220" width="110" height="50" as="geometry" />
        </mxCell>
        <mxCell id="Ii56cu4GygpnmlbYdaqa-4" value="Директор по кадрам и организационно-правовой работе" style="rounded=0;whiteSpace=wrap;html=1;" vertex="1" parent="1">
          <mxGeometry x="440" y="220" width="170" height="50" as="geometry" />
        </mxCell>
        <mxCell id="Ii56cu4GygpnmlbYdaqa-5" value="" style="endArrow=none;html=1;rounded=0;exitX=0.5;exitY=0;exitDx=0;exitDy=0;entryX=0.5;entryY=0;entryDx=0;entryDy=0;" edge="1" parent="1" source="Ii56cu4GygpnmlbYdaqa-2" target="Ii56cu4GygpnmlbYdaqa-4">
          <mxGeometry width="50" height="50" relative="1" as="geometry">
            <mxPoint x="390" y="410" as="sourcePoint" />
            <mxPoint x="440" y="360" as="targetPoint" />
            <Array as="points">
              <mxPoint x="195" y="190" />
              <mxPoint x="390" y="190" />
              <mxPoint x="525" y="190" />
            </Array>
          </mxGeometry>
        </mxCell>
        <mxCell id="Ii56cu4GygpnmlbYdaqa-6" value="" style="endArrow=none;html=1;rounded=0;entryX=0.5;entryY=1;entryDx=0;entryDy=0;" edge="1" parent="1" source="Ii56cu4GygpnmlbYdaqa-3" target="Ii56cu4GygpnmlbYdaqa-1">
          <mxGeometry width="50" height="50" relative="1" as="geometry">
            <mxPoint x="390" y="410" as="sourcePoint" />
            <mxPoint x="440" y="360" as="targetPoint" />
          </mxGeometry>
        </mxCell>
        <mxCell id="Ii56cu4GygpnmlbYdaqa-7" value="Отдел закупок" style="rounded=0;whiteSpace=wrap;html=1;" vertex="1" parent="1">
          <mxGeometry x="60" y="300" width="100" height="30" as="geometry" />
        </mxCell>
        <mxCell id="Ii56cu4GygpnmlbYdaqa-8" value="Отдел сервиса" style="rounded=0;whiteSpace=wrap;html=1;" vertex="1" parent="1">
          <mxGeometry x="60" y="350" width="100" height="30" as="geometry" />
        </mxCell>
        <mxCell id="Ii56cu4GygpnmlbYdaqa-9" value="Отдел сбыта" style="rounded=0;whiteSpace=wrap;html=1;" vertex="1" parent="1">
          <mxGeometry x="60" y="400" width="100" height="30" as="geometry" />
        </mxCell>
        <mxCell id="Ii56cu4GygpnmlbYdaqa-10" value="" style="endArrow=none;html=1;rounded=0;exitX=1;exitY=0.5;exitDx=0;exitDy=0;entryX=0.5;entryY=1;entryDx=0;entryDy=0;" edge="1" parent="1" source="Ii56cu4GygpnmlbYdaqa-9" target="Ii56cu4GygpnmlbYdaqa-2">
          <mxGeometry width="50" height="50" relative="1" as="geometry">
            <mxPoint x="390" y="410" as="sourcePoint" />
            <mxPoint x="440" y="360" as="targetPoint" />
            <Array as="points">
              <mxPoint x="195" y="415" />
            </Array>
          </mxGeometry>
        </mxCell>
        <mxCell id="Ii56cu4GygpnmlbYdaqa-11" value="" style="endArrow=none;html=1;rounded=0;exitX=1;exitY=0.5;exitDx=0;exitDy=0;" edge="1" parent="1" source="Ii56cu4GygpnmlbYdaqa-8">
          <mxGeometry width="50" height="50" relative="1" as="geometry">
            <mxPoint x="390" y="410" as="sourcePoint" />
            <mxPoint x="190" y="365" as="targetPoint" />
          </mxGeometry>
        </mxCell>
        <mxCell id="Ii56cu4GygpnmlbYdaqa-12" value="" style="endArrow=none;html=1;rounded=0;exitX=1;exitY=0.5;exitDx=0;exitDy=0;" edge="1" parent="1" source="Ii56cu4GygpnmlbYdaqa-7">
          <mxGeometry width="50" height="50" relative="1" as="geometry">
            <mxPoint x="170" y="375" as="sourcePoint" />
            <mxPoint x="190" y="315" as="targetPoint" />
            <Array as="points" />
          </mxGeometry>
        </mxCell>
        <mxCell id="Ii56cu4GygpnmlbYdaqa-13" value="Описание - почему так. В общем нет смысловой разницы в терминологии оргструктуры государственного предприятия и коммерческого: тут представлена коммерческая терминология по личному опыту из 90-х годов. Технические подразделения - закупки изделий (у нас фирма по продаже телефонов - их не производят, а закупают), сервиса (консультации, ремонт на месте, адаптация и т.п.) и сбыта (поставка заказчикам). Экономику надо планировать и отслеживать: пусть это будет коммерческий директор и в его подчинении ПЭО и бухгалтерия. Ну и правовое обеспечение требуется, равно как и кадровое - директор по кадрам во главе инспекторов по кадрам и юристов. На этом цель работы можно считать выполненной" style="text;html=1;strokeColor=none;fillColor=none;align=center;verticalAlign=middle;whiteSpace=wrap;rounded=0;" vertex="1" parent="1">
          <mxGeometry x="90" y="510" width="660" height="110" as="geometry" />
        </mxCell>
        <mxCell id="Ii56cu4GygpnmlbYdaqa-14" value="Планово-экономический отдел" style="rounded=0;whiteSpace=wrap;html=1;" vertex="1" parent="1">
          <mxGeometry x="230" y="310" width="120" height="60" as="geometry" />
        </mxCell>
        <mxCell id="Ii56cu4GygpnmlbYdaqa-15" value="Бухгалтерия" style="rounded=0;whiteSpace=wrap;html=1;" vertex="1" parent="1">
          <mxGeometry x="370" y="310" width="120" height="60" as="geometry" />
        </mxCell>
        <mxCell id="Ii56cu4GygpnmlbYdaqa-16" value="" style="endArrow=none;html=1;rounded=0;exitX=0.5;exitY=0;exitDx=0;exitDy=0;entryX=0.5;entryY=0;entryDx=0;entryDy=0;" edge="1" parent="1" source="Ii56cu4GygpnmlbYdaqa-14" target="Ii56cu4GygpnmlbYdaqa-15">
          <mxGeometry width="50" height="50" relative="1" as="geometry">
            <mxPoint x="390" y="410" as="sourcePoint" />
            <mxPoint x="440" y="360" as="targetPoint" />
            <Array as="points">
              <mxPoint x="290" y="290" />
              <mxPoint x="360" y="290" />
              <mxPoint x="430" y="290" />
            </Array>
          </mxGeometry>
        </mxCell>
        <mxCell id="Ii56cu4GygpnmlbYdaqa-18" value="" style="endArrow=none;html=1;rounded=0;entryX=0.5;entryY=1;entryDx=0;entryDy=0;" edge="1" parent="1" target="Ii56cu4GygpnmlbYdaqa-3">
          <mxGeometry width="50" height="50" relative="1" as="geometry">
            <mxPoint x="345" y="290" as="sourcePoint" />
            <mxPoint x="440" y="360" as="targetPoint" />
          </mxGeometry>
        </mxCell>
      </root>
    </mxGraphModel>
  </diagram>
</mxfile>
